<svg width="512" height="512" viewBox="0 0 512 512" fill="none" xmlns="http://www.w3.org/2000/svg">
  <rect width="512" height="512" rx="120" fill="#0F172A"></rect>

  <!-- Sun -->
  <circle cx="310" cy="190" r="70" fill="#FBBF24"></circle>
  
  <g stroke="#FBBF24" stroke-width="18" stroke-linecap="round">
    <path d="M310 80V45"></path>
    <path d="M310 335V300"></path>
    <path d="M200 190H165"></path>
    <path d="M455 190H420"></path>
    <path d="M232 112L207 87"></path>
    <path d="M388 268L413 293"></path>
    <path d="M388 112L413 87"></path>
    <path d="M232 268L207 293"></path>
  </g>

  <!-- Cloud -->
  <path d="M365 355H155C112 355 80 323 80 280C80 239 113 207 154 207
    C167 207 179 210 190 215C211 171 255 145 305 157
    C349 167 380 201 387 244
    C392 243 398 242 405 242
    C449 242 485 278 485 322
    C485 340 471 355 450 355H365Z" fill="#E2E8F0"></path>

  <!-- Rain drops -->
  <g stroke="#38BDF8" stroke-width="16" stroke-linecap="round">
    <path d="M205 390L190 425"></path>
    <path d="M275 390L260 425"></path>
    <path d="M345 390L330 425"></path>
  </g>
</svg>